<?xml version="1.0" encoding="UTF-8"?>
<svg id="Ebene_1" xmlns="http://www.w3.org/2000/svg" version="1.1" viewBox="0 0 240.6 428.1">
  <!-- Generator: Adobe Illustrator 29.5.0, SVG Export Plug-In . SVG Version: 2.1.0 Build 137)  -->
  <defs>
    <style>
      .st0 {
        fill: #2bd4ed;
      }

      .st1 {
        fill: #83d134;
      }

      .st2 {
        fill: #73b82e;
      }

      .st3 {
        fill: #435266;
      }

      .st4 {
        fill: #fd0;
      }

      .st5 {
        fill: #fbfbfb;
      }

      .st6 {
        fill: #619c26;
      }

      .st7 {
        fill: #d93527;
      }
    </style>
  </defs>
  <path class="st6" d="M31.6,6.4C50.4,3.6,69.2,1.7,87.9.8c23.2-1.2,46.4-1,69.6.6,18.7,1.2,37.5,3.4,56.3,6.5,9.1,110.2,8,290.9-2.2,401-13,5.5-26,9.7-38.9,12.8-35.9,8.7-71.3,8.4-107.1-.9-12.8-3.3-25.7-7.8-38.6-13.5C18.7,297.1,20.6,116.4,31.6,6.4Z"/>
  <path class="st2" d="M31.6,21.2c17.6-2.3,35.4-3.8,53-4.7,1.1-.3,2.2-.3,3.2-.2,1.1,0,2.2,0,3.2-.2h4.3c18.1-.9,36.5-.7,54.6.5h4.3c1.1.3,2.2.3,3.2.3,1.1,0,2.2,0,3.2.3,17.5,1.2,35.4,3,53.2,5.6,9.1,101.4,8,271.3-2,372.2-13,5-26,9-39,11.8-5.1,1-10.3,2.1-15.4,2.8-2.2.3-4.3.8-6.5.8-1.4.5-3,.5-4.3.8-18.4,2-36.2,1.9-54.6-.5-1.3-.3-3-.3-4.3-.8-2.2,0-4.3-.6-6.5-.9-5.1-.9-10.2-2-15.4-3.1-12.9-3.1-25.9-7.2-38.8-12.5-8.3-101.1-6.6-271,4.5-372.2Z"/>
  <path class="st1" d="M41.6,81.9c54.2-8.1,107-7.7,161.1,1.4,8,100.1,7.4,211.3-1.6,311.3-55.2,23.7-108.2,23.2-163-1.4-7.3-100.1-6.1-211.3,3.6-311.3Z"/>
  <path class="st4" d="M92,410.7l3.3-394.6c18.1-.9,36.5-.8,54.6.5l-3.3,394.6c-18.4,2-36.2,1.9-54.6-.5Z"/>
  <path class="st5" d="M150.9,410.4l3.3-393.8c1.1.3,2.2.3,3.2.3,1.1,0,2.2,0,3.2.3l-3.3,392.5c-2.2.3-4.3.8-6.5.8Z"/>
  <path class="st5" d="M81.2,409l3.3-392.5c1.1-.3,2.2-.3,3.2-.2,1.1,0,2.2,0,3.2-.2l-3.3,393.8c-2.2,0-4.3-.6-6.5-.9Z"/>
  <path class="st0" d="M41.6,80.4c54.2-6.1,107-5.7,161.1,1.4,8.2,76.5,7.9,153.3-.9,229.7-55.1,18-108.2,17.5-163-1.4-7.5-76.5-6.6-153.3,2.9-229.7Z"/>
  <path class="st1" d="M57.8,115.2c8.6-.7,17.3-1.2,25.9-1.4,2.2-.3,4.3-.5,6.5-.5,1.4,0,2.7-.2,4.3,0,18.1-.9,36.5-.8,54.6.5,1.6-.3,3,0,4.3,0,2.2,0,4.3.3,6.5.6,8.6.3,17.3,1,25.9,1.8,6.6,45.7,6.5,91.9-.3,137.8-8.9,2.4-17.9,3.9-26.8,5.2-2.2.5-4.3.8-6.5.8-1.6.3-3,.5-4.3.5-18.4,2-36.2,1.9-54.6-.5-1.4,0-2.7-.3-4.3-.6-2.2,0-4.3-.3-6.5-.9-8.9-1.4-17.8-3.1-26.7-5.6-6.1-46-5.4-92.2,2-137.7Z"/>
  <path class="st4" d="M93.3,260l1.2-146.7c18.1-.9,36.5-.8,54.6.5l-1.2,146.7c-18.4,2-36.2,1.9-54.6-.5Z"/>
  <path class="st5" d="M152.2,259.9l1.2-146.1c2.2,0,4.3.3,6.5.6l-1.2,144.8c-2.2.5-4.3.8-6.5.8Z"/>
  <path class="st5" d="M82.5,258.5l1.2-144.8c2.2-.3,4.3-.5,6.5-.5l-1.2,146.1c-2.2,0-4.3-.3-6.5-.9Z"/>
  <g>
    <path class="st6" d="M185.5,253.9c-1.7.4-3.4.7-5.1,1.1l14.1,58.6c2.4-.7,4.7-1.4,7.1-2.2.4-3.7.7-7.4,1.1-11.1l-17.1-48.3c0,.6-.1,1.2-.2,1.8Z"/>
    <path class="st6" d="M190.7,187.7h17.7c0-4.5,0-9.1-.1-13.8l-17.6,4.4c0,3.1,0,6.2,0,9.3Z"/>
    <path class="st6" d="M55.8,252.8c0-.6-.1-1.2-.2-1.8l-17.9,48c.3,3.7.6,7.4.9,11.1,2.4.8,4.7,1.5,7,2.3l15.1-58.4c-1.7-.4-3.3-.7-5-1.2Z"/>
    <path class="st6" d="M57.7,115c1.5-.1,3-.2,4.5-.3l-8-35.5c-4.2.4-8.4.8-12.6,1.2-.6,4.9-1.1,9.8-1.6,14.7l16.8,27c.3-2.4.6-4.7,1-7.1Z"/>
    <path class="st6" d="M185.9,116.1c.3,2.4.6,4.7.9,7.1l17.2-26.7c-.5-4.9-.8-9.8-1.4-14.7-4.2-.5-8.4-1-12.6-1.4l-8.6,35.4c1.5.1,3,.2,4.5.4Z"/>
    <path class="st6" d="M51.7,186.6c0-3.1.1-6.2.2-9.3l-17.6-4.7c-.2,4.6-.3,9.3-.4,13.9h17.7Z"/>
  </g>
  <polygon class="st3" points="38.6 310.1 30.6 303.2 32.9 297.8 37.8 290.9 38.6 310.1"/>
  <path class="st1" d="M.6,290.1l32.3,7.7-.3,1.2c-1.4,6.1-7.5,9.8-13.6,8.4l-10.3-2.5c-6.1-1.4-9.8-7.5-8.4-13.6l.3-1.2Z"/>
  <polygon class="st3" points="201.7 311.4 209.9 304.7 207.7 299.3 202.9 292.3 201.7 311.4"/>
  <path class="st1" d="M240.1,292.2l-32.4,7.1.3,1.2c1.3,6.1,7.4,9.9,13.5,8.6l10.3-2.3c6.1-1.3,9.9-7.4,8.6-13.5l-.3-1.2Z"/>
  <path class="st5" d="M203.3,411.2c5.3-2.6,7.2-12.8.9-12.4-8.8.5-35.1,17.3-28.6,20.5,2.8,1.4,25.3-6.8,27.7-8.1Z"/>
  <path class="st5" d="M35.4,409.8c-5.2-2.7-7-13-.7-12.5,8.8.7,34.8,17.9,28.3,21-2.8,1.3-25.2-7.3-27.6-8.5Z"/>
  <path class="st3" d="M74.9,408.7c29.3,5.9,59.4,6.1,88.8.7,3.9-.7,7.8,1.7,8.7,5.6h0c.9,3.9-1.9,7.8-6.1,8.6-31.2,5.7-63.2,5.4-94.2-.8-4.2-.8-6.9-4.8-5.9-8.7h0c.9-3.9,4.8-6.3,8.8-5.5Z"/>
  <path class="st5" d="M114.3,420.8c0-1.7,2.2-3,5-3,2.7,0,4.9,1.4,4.9,3.1,0,1.7-2.2,3-5,3-2.7,0-4.9-1.4-4.9-3.1Z"/>
  <path class="st5" d="M119.2,420.8c.8-3.4,45.2-11.5,45.2-11.5,0,0-22.2,4.1-45.1,3.9,0,2.9,0,7.6,0,7.6Z"/>
  <path class="st5" d="M119.2,420.8c-.7-3.4-45-12.2-45-12.2,0,0,22.1,4.5,45.1,4.7,0,2.9,0,7.6,0,7.6Z"/>
  <polygon class="st3" points="188.3 333.6 188.4 326.8 161.5 338.9 188.3 333.6"/>
  <polygon class="st3" points="188.2 343.5 188.3 336.7 161.4 348.8 188.2 343.5"/>
  <polygon class="st3" points="188.1 353.4 188.2 346.6 161.3 358.7 188.1 353.4"/>
  <polygon class="st3" points="51.6 332.4 51.7 325.7 78.4 338.2 51.6 332.4"/>
  <polygon class="st3" points="51.6 342.3 51.6 335.6 78.3 348.1 51.6 342.3"/>
  <polygon class="st3" points="51.5 352.2 51.5 345.5 78.2 358 51.5 352.2"/>
  <rect class="st7" x="181.3" y="-10.1" width="10.8" height="43" transform="translate(156.1 195.9) rotate(-84.1)"/>
  <rect class="st7" x="37.2" y="4.9" width="43" height="10.8" transform="translate(-.7 5.1) rotate(-4.9)"/>
</svg>