<?xml version="1.0" encoding="UTF-8"?>
<svg xmlns="http://www.w3.org/2000/svg" version="1.1" viewBox="0 0 428.7 714.2">
  <!-- Generator: Adobe Illustrator 29.5.0, SVG Export Plug-In . SVG Version: 2.1.0 Build 137)  -->
  <defs>
    <style>
      .st0, .st1, .st2, .st3, .st4, .st5, .st6, .st7, .st8, .st9, .st10, .st11 {
        stroke-miterlimit: 10;
      }

      .st0, .st2, .st5, .st6, .st7, .st11 {
        fill: none;
      }

      .st0, .st5 {
        stroke: #6f4641;
      }

      .st0, .st5, .st8, .st11 {
        stroke-width: 3px;
      }

      .st12, .st1, .st3, .st8, .st9, .st10 {
        fill: #4cafd0;
      }

      .st13 {
        fill: #6f4641;
      }

      .st14 {
        fill: #5e4641;
      }

      .st1, .st2 {
        stroke-width: 2px;
      }

      .st1, .st2, .st3, .st6, .st7, .st8, .st9, .st10, .st11 {
        stroke: #000;
      }

      .st3 {
        stroke-width: 2.4px;
      }

      .st4 {
        stroke: #ba7f71;
        stroke-width: 4.5px;
      }

      .st4, .st15 {
        fill: #ba7f71;
      }

      .st5 {
        stroke-linecap: round;
      }

      .st6, .st10 {
        stroke-width: 3.6px;
      }

      .st16 {
        fill: #ba7f71;
      }

      .st7, .st9 {
        stroke-width: 3.3px;
      }
    </style>
  </defs>
  <g id="Ebene_1">
    <path class="st16" d="M269.2,459.2v146.9c-.6,1-1.3.9-2.3,1-9.4,1.1-20.4-1.1-29.9,0,.3-1.5-.5-3-.5-4.4,0-17.9,3.8-59.9-2-74.7s-12.3-17.5-19.6-19.4c-5.4-1.4-14.8,6.8-18.1,10.8s-7.4,11.8-7.4,15.4v71.3l-1,1h-28.2l-1-1v-146.9h110.2Z"/>
    <polygon class="st16" points="154.2 611.2 154.2 708.6 65.2 708.6 65.5 611.2 154.2 611.2"/>
    <path class="st16" d="M362.6,521.7v85.4h-88.7v-85.4h88.7Z"/>
    <path class="st16" d="M362.6,610.7v99.2h-88.7v-99.2h88.7Z"/>
    <polyline class="st15" points="5 629.6 60.8 574.2 60.8 708.6 4.5 708.6"/>
    <path class="st16" d="M362.6,459.2v58.5h-88.7v-58.5h88.7Z"/>
    <path class="st16" d="M362.6,305.9v66.6h-88.7v-66.6h88.7Z"/>
    <path class="st16" d="M154.2,305.9v66.6h-88.7v-66.6h88.7Z"/>
    <path class="st16" d="M154.2,459.2v58.5h-88.7v-58.5h88.7Z"/>
    <path class="st16" d="M154.2,521.7v85.4h-88.7v-85.4h88.7Z"/>
    <rect class="st16" x="64.8" y="430.2" width="297.8" height="13.5"/>
    <path class="st16" d="M362.6,377.2v49.1h-31.6v-25.2c0-4.4-4.8-14.4-8-17.5-5-4.7-6.9-2.5-10.8,2s-6.7,12.4-6.7,17.5v23.2h-31.6v-49.1h88.7Z"/>
    <path class="st16" d="M269.2,623.9v84.7h-1.3v-63.5c0-2.9-7.1-9.9-10.4-9.8s-10.4,6.9-10.4,10.5v14.5l-3.5-9c-2.7-6.7-22.7-25.1-29.1-24.7s-19.9,13.1-23.6,17.5-9.1,13.7-9.1,19.2v45.4h-.7v-62.2c0-1.4-2.8-6.2-4-7.4-4.7-5-9.2-4.7-13.8.4s-3.7,7-3.7,9v57.1c0,.9,1.4,2.5-.7,3v-84.7h110.2Z"/>
    <path class="st16" d="M241.4,708.7h-9.5v-46c0-5.1-8-13.6-12.5-16-4.9-2.7-5.7-2.4-10.5.6s-11.8,12-11.8,18.6v42.8h-8.9v-44.1c0-1.1,2.9-7.6,3.7-9,4.9-8.5,14.1-15.3,22.6-19.8,10,4.4,22.4,15,25.7,25.6s1.2,4.6,1.2,5.1v42.2Z"/>
    <polygon class="st16" points="75.5 257.8 79.6 256.8 79.6 262.2 84.3 262.2 84.3 256.8 91 256.8 91 262.2 95 262.2 95 256.8 101.8 256.8 101.8 262.2 106.5 262.2 106.5 256.8 113.2 256.8 113.2 262.2 117.5 262.2 117.9 256.8 124.6 256.8 124.6 262.2 128.3 262.2 128.7 256.8 135.4 256.8 135.4 262.2 139.7 262.2 140.1 256.8 144.1 256.8 144.1 277.7 76.6 277.7 75.5 276.7 75.5 257.8"/>
    <rect class="st14" x="159.6" y="611.2" width="109.6" height="8.1"/>
    <path class="st16" d="M132,203.7v22.5c0,.2,1.2.7-.3,1.7h-12.4c.9-5.6-4.7-25.7-12.8-18.5s-5.2,12.3-6,18.5h-12.8c.2-.7-.7-1.5-.7-1.7v-22.5h45Z"/>
    <path class="st16" d="M341.1,203.7v24.2h-13.4c0-7.3-1.4-17.2-9.1-20.2-8,2.4-9.6,12.9-9,20.2h-13.4v-24.2h45Z"/>
    <path class="st16" d="M123.3,174.8h-11.4v-106.2c1,.4,1.1,3.4,1.3,4.5,3.6,24.2,8.7,53.9,10.2,77.9s-.3,16,0,23.9Z"/>
    <path class="st16" d="M107.8,174.8h-11.4c.4-7.8-.5-16.1,0-23.9,1.5-23.7,7.9-48.6,9.5-72.5l1.9-9.8v106.2Z"/>
    <path class="st16" d="M207.3,352.3c1,6.8-1.3,17.6,0,23.9s6.1,4.5,5.9,4.9c-7,3-16.7,9-20.1,15.9s-3.2,8.6-3.2,10.2v17.5l-1,1h-28.6"/>
    <path class="st16" d="M316.2,173.8c-.5,1.6-11,1.5-11.3,0,.2-.7.6-1.4.5-2.1-1.6-31.1,5.9-61.8,8.8-92.7l1.9-10.5v105.2Z"/>
    <path class="st16" d="M268.5,425.6h-30.3v-18.5c0-1.6-2.6-8.7-3.6-10.6-3.4-6.9-15-11.7-21.5-15.5,1-.9,7.6-4.3,7.6-5.5v-23.2s47.8,71.1,47.8,73.3Z"/>
    <path class="st16" d="M331.7,174.8h-9.7c-1.4,0-1-2.4-1-3v-98.2c0-.7-1.4-2.9-.7-4.4l1.2,3.1,10.2,77.9v24.5Z"/>
    <rect class="st16" x="93" y="179.5" width="33.6" height="19.5"/>
    <rect class="st16" x="164.3" y="657.6" width="12.1" height="51.1"/>
    <rect class="st16" x="249.6" y="660.6" width="11.4" height="48.2"/>
    <path class="st16" d="M359.2,293.1h-81c-2.3-2.8-.2-7.4-1-10.8,8.1-1.9,10.2,4,15.8,8l8.2-7.3,8.6,7.3,8.6-7.3,8.2,7.3,8.6-7.3,8.2,7.3c4.5-3.3,9.7-11.8,15.8-7.7v10.4Z"/>
    <path class="st16" d="M68.8,282.4c7.2-3,10.4,4.8,15.8,7.9l8.2-7.2,8.7,7.2,8.6-7.2,8.2,7.3,8.6-7.3,7.5,7.4c6-3.6,8.3-10,16.5-8.1v9.7l-1,1h-81v-10.8Z"/>
    <polygon class="st16" points="291.3 232.6 291.3 277.7 278.6 277.7 278.6 229.9 291.3 232.6"/>
    <path class="st16" d="M328.3,277.7c-.3-3.6.4-7.6,0-11.1s-2.8-6-2-9.8h6.7s.4,5.4.4,5.4h4.3s-.7-5.4-.7-5.4h7.4s-.7,5.4-.7,5.4h4.3s.4-5.4.4-5.4h4v19.8l-1,1h-23.2Z"/>
    <path class="st16" d="M193.2,544.9c.2-1.3,1.8-4.8,3.1-5s3.6,3,3.6,3.6v62.5l-1.1.9c-1.9-.7-4.3.9-5.6-.9v-61.2Z"/>
    <path class="st14" d="M365.3,297.2c.5.5-2.6,5.5-4.3,4.7l-87.5-.7-2.3-4.1h94.1Z"/>
    <path class="st16" d="M211.6,708.7v-56.1c0-.5,2.4-3.6,3.4-3.5,1.3.2,3.2,4.5,3,6v52s-1.1,1.5-1.1,1.5h-5.3Z"/>
    <path class="st16" d="M232.2,607.1h-6.1v-64.2c0-.4,1.9-2.9,2.4-3,.9,0,3.6,2.8,3.6,3v64.2Z"/>
    <path class="st16" d="M204.6,542.2c0-.3,2.1-2.4,2.9-2.3l3.1,4.4v62.1c0,0-6,.8-6,.8v-64.9Z"/>
    <path class="st16" d="M215.4,542.9c.2-.7,1.9-3.1,2.9-3,.6.1,3.1,3.2,3.1,3.6v62.5c-1.2,1.7-3.2.5-5,.8l-1.1-.8v-63.2Z"/>
    <path class="st16" d="M77.6,243.4v-8.1s6.9,5.3,6.9,5.3c2.6-.7,6.5-7.1,8.7-6.5s6.7,6.7,8.1,6.5l8.2-6.7,8.2,6.7,8.8-6.6,8,6.6,7.6-6v8.7s-64.5,0-64.5,0Z"/>
    <path class="st16" d="M296,243.4c-.9-4.9,1.1-7,5.2-9.3l8.5,6.5,8.7-6.5,8.1,6.5,8.9-6.6,7.5,6.6,7.6-5.3v8.1s-54.4,0-54.4,0Z"/>
    <path class="st16" d="M228.1,708.7h-6.3v-42.2c0-.8,2-3.9,2.9-4.1s3.4,3.2,3.4,4.1v42.2Z"/>
    <polygon class="st16" points="147.5 248.1 145.7 252.2 73.9 252.2 72.2 248.1 147.5 248.1"/>
    <path class="st16" d="M207.1,708.7h-5.7v-42.8c0-.4,2.3-3.3,2.8-3.3.9,0,2.9,2,2.9,2.7v43.4Z"/>
    <path class="st16" d="M231.5,535.9c-3.3-1.8-5.6.3-7.7,2.7l-3.7-3c3-2.4,4.2-5.3,3-9.1s-2.8-2.7-3.4-4-.2-3.1-1.4-4.6c-2.6-3.3-8.1-3.5-10.8,0s-1.1,4.1-1.8,5.2-1.4.6-1.8,1.2c-3.4,4.9-2.3,8.2,2,11.8l-3.7,2.6c-.7,0-3.2-2.8-4.2-3.1-1.8-.5-4.5,1.6-4.2-.4.6-4,4.3-10.8,7-13.8s9.5-8.2,12.1-8.1c6.5.4,19.8,15.5,18.5,22.9Z"/>
    <path class="st16" d="M296,256.8h3.4s.4,5.4.4,5.4h3.7s0-5.4,0-5.4h7.4c1,1.9-2,6.7-2,7.1v13.8h-12.8v-20.8Z"/>
    <polygon class="st16" points="355.9 248.1 354.5 252.1 296 252.1 296 248.1 355.9 248.1"/>
    <path class="st16" d="M291.3,188.3v19.5c-1.7,0-12.7-1-12.8-1.7v-15.7c0,0,12.8-2,12.8-2Z"/>
    <polygon class="st16" points="291.3 166.1 291.3 183.5 278.6 185.6 278.6 168.8 291.3 166.1"/>
    <rect class="st16" x="302.1" y="179.5" width="10.8" height="19.5"/>
    <rect class="st16" x="324.3" y="179.5" width="10.8" height="19.5"/>
    <polygon class="st16" points="291.3 212.5 291.3 227.9 278.6 225.2 278.6 211.1 291.3 212.5"/>
    <path class="st12" d="M316.2,426.3h-6.1v-26.9c1.9.9,6.1,4.2,6.1,6.4v20.5Z"/>
    <path class="st16" d="M206.1,403.2c-4.3-4.3,4.8-6.1,5.1-7.7s-1.4-3.6-.2-5.6c5.3-3.7,7.1,1.2,6,6.1,1.1,1.6,3.1,1,4.5,2.3,3.3,3-1.4,7.6-4.7,5.4s-.7-2.2-2.4-2.4-5,5.2-8.2,1.9Z"/>
    <path class="st16" d="M216,351h-4c.4-12.8-1.1-25.7,1.4-38.3,1.2.2,1.2,1.3,1.4,2.3s1.2,5.4,1.2,6.2v29.9Z"/>
    <path class="st12" d="M326.3,426.3l-6.1-.3c3.1-8.8-4-21.2,5.7-26.5,2.1-.2.3.7.3,1v25.9Z"/>
    <path class="st16" d="M179.7,391c0-.2,1.5-4.3,1.7-4.4,1.6-.5,1.2,3.7,2.3,4.4v28.6h-4c.9-8.9-1.2-19.9,0-28.6Z"/>
    <path class="st12" d="M324.9,395.3c-2.9.3-4.4,3-6.4,4.7l-6.4-5.7c0-1.5,4.9-8.6,6.3-8.4,3.3,2.2,4.8,5.9,6.5,9.3Z"/>
    <path class="st16" d="M222.8,426.3h-6.7v-11.1c0-.2,1.4-2.7,1.5-2.8,2.1-1.9,5.2.4,5.2,2.2v11.8Z"/>
    <path class="st16" d="M234.2,426.3h-7.4c1.5-5.3-1.4-12.1,3.7-15.4,5.2,3.7,1.9,10.1,3.7,15.4Z"/>
    <path class="st16" d="M205.3,414.5c.1-.6,1.8-2.8,2.5-3,6.1.9,2.4,9.3,4.3,13.7.1,1.4,0,.9-1,1-1.7.3-3.9-.2-5.7,0,.5-3.4-.7-8.6,0-11.8Z"/>
    <path class="st16" d="M216,355.7v19.2c0,.1-1.4,1.6-1.8,1.6-.7.2-2.3-1.5-2.3-1.6v-19.2h4Z"/>
    <polygon class="st16" points="290.7 161.4 279.9 164 285.6 148.6 290.7 161.4"/>
    <path class="st16" d="M218.6,527.3l.5,2.6-1.7,1.7-4.4-2.4c-1.7,0-3.9,4.8-6.3.9l.5-2.6,3.5-1.3v-5.2c.8-1.1,2.5-1.4,3.7-.5,2.4,1.9-2.4,6.2,4.2,6.9Z"/>
    <path class="st16" d="M341.1,199h-2v-25.9c0-.2.9-1,.7-1.7.3-.2,1.3.9,1.3,1v26.6Z"/>
    <path class="st16" d="M130.7,173.8c0-.3.6-2.6,1.3-2.3,1.6,4.1,0,8,0,11.7s.6,10.5,0,14.8.2,1.1-1.3,1c.7-8-.9-17.4,0-25.2Z"/>
    <path class="st16" d="M337.7,165.1c-.1,1-1.7,2.8-1.4,4.4h-.7s0-19.8,0-19.8c0-.2.8-2.4,1-2.4.3.3,1,2.2,1,2.4,0,4.6.6,11.2,0,15.5Z"/>
    <path class="st16" d="M89,199h-1.3v-23.9c0-1.1-.4-2.4,0-3.7h.7c-.3.8.7,1.9.7,2.3v25.2Z"/>
    <path class="st16" d="M297.4,199h-1.3v-27.6h.7c-.2.6.7,1.4.7,1.7v25.9Z"/>
    <path class="st16" d="M92.4,168.1c-1,.2-.9-1.2-1.1-1.9-1.7-5.8-.9-13-.2-19,.7-.3,1.3,2.2,1.3,2.3v18.5Z"/>
    <path class="st16" d="M127.3,149.6c0-.3.6-2.6,1.3-2.3.7,5.2,1.2,11.6.4,16.8s-.6,3.8-1.7,4c.5-5.9-.7-12.7,0-18.5Z"/>
    <polygon class="st16" points="140.1 279.7 134.4 284.4 130 279.7 140.1 279.7"/>
    <path class="st16" d="M300.7,168.1h-.7c.3-.8-.7-1.9-.7-2.4v-18.5h.7c-.2.6.7,1.4.7,1.7v19.2Z"/>
    <rect class="st16" x="317.6" y="183.5" width="2" height="12.8"/>
    <polygon class="st16" points="106.5 279.7 101.4 284.3 96.4 279.7 106.5 279.7"/>
    <path class="st16" d="M321.5,217.8l-3.3,1.8c-6.1-1.5.7-11.9,3.3-1.8Z"/>
    <polygon class="st16" points="348.5 279.7 343.4 284.4 338.4 279.7 348.5 279.7"/>
    <path class="st16" d="M314.9,279.7l-5,4.7c-1.2-1.8-4.3-2.3-4.4-4.7h9.4Z"/>
    <path class="st16" d="M298.1,279.7l-5,4.6c-.8-.5-1.5-1.1-2.3-1.7s-2.4-2-2.1-2.9h9.4Z"/>
    <path class="st16" d="M122.6,279.7c1,.9-4.1,3.8-4.4,4.7l-5-4.7h9.4Z"/>
    <path class="st16" d="M109.6,213.2c1.2-.3,3,2.6,2.9,3.7l-2.4,3-3.5-3,3-3.7Z"/>
    <polygon class="st16" points="331.7 279.7 326.6 284.4 321.6 279.7 331.7 279.7"/>
    <path class="st16" d="M89,279.7l-4.4,4.6-4.4-3.6c0-1.6,7.3-.8,8.7-1Z"/>
    <polygon class="st16" points="89 230.6 84.6 234.7 80.3 230.9 89 230.6"/>
    <polygon class="st16" points="331 230.6 326.6 234.7 322.3 230.9 331 230.6"/>
    <polygon class="st16" points="347.8 230.6 343.4 234.7 339.1 230.9 347.8 230.6"/>
    <polygon class="st16" points="122.6 230.6 118.2 234.7 113.9 230.9 122.6 230.6"/>
    <path class="st16" d="M139.4,230.6c-3.4,4.8-5.1,5-8.7.3l8.7-.3Z"/>
    <path class="st16" d="M314.2,230.6c-3.4,4.8-5.1,5-8.7.3l8.7-.3Z"/>
    <path class="st16" d="M105.8,230.6c-.4,1.2-4,4.1-4.9,4l-3.8-3.6,8.7-.3Z"/>
    <path class="st16" d="M316.2,270.3h-2.7c0-2.8-.8-6.2,2.4-7.4l.3,7.4Z"/>
    <path class="st16" d="M323.6,270.3h-2.7s0-7.4,0-7.4c3.2,1.5,2.8,4.3,2.7,7.4Z"/>
    <path class="st16" d="M171,653.5c-.4,0-1.3-.9-1.3-1v-10.8c0-.3.8-2.1,1.3-1.7v13.4Z"/>
    <path class="st16" d="M316.2,227.9h-2.7s-.7-6-.7-6c2.9.2,3.6,3.6,3.4,6Z"/>
    <path class="st16" d="M115.2,221.9l-.7,6h-2.7c-.3-2.4.5-5.8,3.4-6Z"/>
    <path class="st16" d="M323.6,221.9c-1.1,1.4.4,7.2-2.3,6s1.1-7.3,2.3-6Z"/>
    <path class="st16" d="M107.8,227.9h-2.7s-.7-6-.7-6c2.4-.7,4,5.4,3.4,6Z"/>
    <path class="st16" d="M333.7,542.3c0,8.6-6.9,15.5-15.5,15.5s-15.5-6.9-15.5-15.5,6.9-15.5,15.5-15.5,15.5,6.9,15.5,15.5Z"/>
    <polygon class="st16" points="319.6 584.9 316.9 584.9 316.9 576.9 318.9 577.2 319.5 578 319.6 584.9"/>
    <path class="st16" d="M319.6,505.6h-2.7c-1.1-10.7,3.7-10.7,2.7,0Z"/>
    <path class="st16" d="M107.8,502.9c-1.2.2-.6-1.5-.7-2.3-.4-9.6.9-19.4-1.4-28.9h1.4c0,.6.7,1.1.7,1.3v29.9Z"/>
    <path class="st16" d="M111.8,473c.1-.8,1.2-2.6,2-1.3-2.3,9.5-1,19.3-1.4,28.9s.5,2.5-.7,2.3c1-9.2-1.3-21.1,0-29.9Z"/>
    <path class="st16" d="M126.6,528.8c1.9-3,8.8-2.1,8.8,0v45.4c-2-.4-8.6,1-9.3-1.1"/>
    <path class="st16" d="M121.3,574.2h-9.4v-44.7c0-2.8,9.4-3.3,9.4-.7v45.4Z"/>
    <path class="st16" d="M98.4,574.2v-42c0-1.7-.6-3.4,1.3-4.7,2.8-.7,6.1-1,7.7,1.7v44.1c.1,0-1.3,1-1.3,1h-7.7Z"/>
    <path class="st16" d="M93.7,574.2h-9.4v-45.4c1.5-2.8,9.4-1.8,9.4.7v44.7Z"/>
    <g>
      <path class="st8" d="M122.4,372.1h-27.4v-42.9c0-10.9,13.8-15.8,13.8-15.8,0,0,13.6,4.9,13.6,16.8v41.9Z"/>
      <path class="st11" d="M95,329.7s13.6.7,13.6,8.2v34.2"/>
      <path class="st11" d="M122.3,329.7s-13.6.7-13.6,8.2v34.2"/>
    </g>
    <g>
      <path class="st8" d="M333.5,372.1h-27.4v-42.9c0-10.9,13.8-15.8,13.8-15.8,0,0,13.6,4.9,13.6,16.8v41.9Z"/>
      <path class="st11" d="M306.1,329.7s13.6.7,13.6,8.2v34.2"/>
      <path class="st11" d="M333.4,329.7s-13.6.7-13.6,8.2,0,34.2,0,34.2"/>
    </g>
  </g>
  <g id="Kontur">
    <path class="st15" d="M111.8,0v12.1h7.4s0,4,0,4c-1.7.3-6.6-.9-7.3,1.1l15.4,113.5c.8.5,5.6,15.1,5.9,17,1.2,8.4-.7,16.9,3.4,25.5v54.7h10.2v15.5h7.4c.7.6-5.7,12.4-6,14.5s-.5,15.5,0,18.1.2,1.4,1.1,1.6h5.6c0,0,.3,14.9.3,14.9l9.1.6c.5.4-5.4,9.2-5.4,9.7l.2,115.2c0,0,48.2-75.9,48.2-75.9v-19.5l.7-4.7c.3-2,.6-4,1.2-5.9s2.9-6.8,2.9-7.2v-21.2h4v21.2c0,.4,2.6,6.5,3,8.4,2.1,9.5,1.6,19.3,1.7,28.9,0,0,44.3,71.2,48.6,75.8l-1.1-113.9c0-1.1-4.7-7.7-5.4-9.4,0,0,9.2-1,10.3-1.6.5-.5-.3-11.7,0-13.8,1.8-13,.9-22.6,1-35.5.2-26,.6-52,.6-77.9l9.9-30.1,10.1,22.2v-10.4c1.8-2.6,4.2-15.7,6-16.8s15.5-114.7,15.5-114.7h-7.4s0-4,0-4h7.4s0-12.1,0-12.1h4.7v12.1l6.7-.7v4.7s-6.3,0-6.3,0l-.8,1.3,15.2,113.3c1.1.6,5.4,13.7,5.7,15.8,1.5,8.2-1,17.1,3.6,25.3v56.1h10.1v15.5h7.4c1,.8-6,12.8-6,13.8v20.5h7.4c.4,5.1-1.5,10.2,0,15.1l8.8-.3c.4,2.3-5.4,9.6-5.4,10.4v140.9h13.4c.2,1.1-.1,1.5-.6,2.4-1,1.5-8.4,11.8-9.1,12.4-1.2,1-2.3.7-3.7.7v50.4l-.9,204.1-366.4-.7,1-86.7,59.7-59.9v-106.8c-4.8-4.2-8.1-10.5-12.1-15.6l12.1-.3c.4-15.8.2-130.7,0-137s-4.6-11.3-5.5-13.6c1.4-.6,9.4.6,9.4-1v-14.5h6.7v-20.5l-6-13.8h7.4v-14.5c1.2-2.2,9.4-.3,10.1-1v-55.4c4.3-7.9,2.3-16.5,3.5-24.8s7.9-16.6,7.9-16.6c0,0,13.9-103.7,13.5-115h-7.4s0-4,0-4c.5-.5,6.4,1,7.4-1V0h4ZM107.8,174.8v-106.2l-1.9,9.8c-1.6,23.9-8,48.8-9.5,72.5s.3,16,0,23.9h11.4ZM123.3,174.8c-.4-7.8.5-16.1,0-23.9-1.5-24-6.6-53.7-10.2-77.9s-.3-4.1-1.3-4.5v106.2h11.4ZM316.2,173.8v-105.2l-1.9,10.5c-2.9,30.9-10.4,61.5-8.8,92.7s-.4,1.4-.5,2.1c.2,1.5,10.8,1.5,11.3,0ZM331.7,174.8v-24.5s-10.2-77.9-10.2-77.9l-1.2-3.1c-.7,1.4.7,3.6.7,4.4v98.2c0,.6-.4,3,1,3h9.7ZM92.4,168.1v-18.5c0-.1-.6-2.6-1.3-2.3-.7,5.9-1.5,13.1.2,19s.2,2,1.1,1.9ZM127.3,149.6c-.7,5.8.5,12.6,0,18.5,1.1-.3,1.6-3.1,1.7-4,.8-5.2.3-11.5-.4-16.8-.7-.3-1.3,2.1-1.3,2.3ZM300.7,168.1v-19.2c0-.3-.8-1-.7-1.7h-.7s0,18.5,0,18.5c0,.4.9,1.5.7,2.3h.7ZM337.7,165.1c.6-4.3,0-10.9,0-15.5s-.7-2.1-1-2.4c-.2,0-1,2.2-1,2.4v19.8h.7c-.4-1.5,1.2-3.4,1.4-4.4ZM290.7,161.4l-5-12.8-5.7,15.5,10.8-2.7ZM291.3,166.1l-12.8,2.7v16.8l12.8-2v-17.5ZM89,199v-25.2c0-.4-.9-1.5-.7-2.3h-.7c-.4,1.3,0,2.6,0,3.7v23.9h1.3ZM130.7,173.8c-.9,7.8.7,17.2,0,25.2,1.6,0,1.2.2,1.3-1,.6-4.3-.1-10.3,0-14.8s1.6-7.7,0-11.7c-.7-.3-1.3,2.1-1.3,2.3ZM297.4,199v-25.9c0-.3-.8-1-.7-1.7h-.7s0,27.6,0,27.6h1.3ZM341.1,199v-26.6c0-.1-1.1-1.2-1.3-1,.2.7-.7,1.4-.7,1.7v25.9h2ZM93,179.5v19.5h33.6v-19.5h-33.6ZM302.1,179.5v19.5h10.8v-19.5h-10.8ZM324.3,179.5v19.5h10.8v-19.5h-10.8ZM319.6,183.5h-2v12.8h2v-12.8ZM291.3,188.3l-12.7,2v15.7c0,.7,11.1,1.8,12.7,1.7v-19.5ZM132,203.7h-45v22.5c0,.2.9,1,.7,1.7h12.8c.9-6.2.8-13.9,6-18.5,8.1-7.2,13.7,12.9,12.8,18.5h12.4c1.5-.9.3-1.4.3-1.7v-22.5ZM341.1,203.7h-45v24.2h13.4c-.6-7.2,1-17.7,9-20.2,7.7,2.9,9.1,12.9,9.1,20.2h13.4v-24.2ZM291.3,212.5l-12.8-1.3v14.1l12.8,2.7v-15.5ZM109.6,213.2l-3,3.7,3.5,3,2.4-3c0-1.1-1.7-3.9-2.9-3.7ZM321.5,217.8c-2.6-10.1-9.5.4-3.3,1.8l3.3-1.8ZM107.8,227.9c.6-.6-.9-6.7-3.4-6l.7,6h2.7ZM115.2,221.9c-2.9.2-3.6,3.6-3.4,6h2.7s.7-6,.7-6ZM316.2,227.9c.3-2.4-.5-5.8-3.4-6l.7,6h2.7ZM323.6,221.9c-1.3-1.3-5,4.9-2.3,6s1.3-4.6,2.3-6ZM291.3,232.6l-12.8-2.7v47.7h12.8v-45ZM89,230.6l-8.7.3,4.4,3.7,4.4-4.1ZM105.8,230.6l-8.7.3,3.8,3.6c.9.2,4.5-2.8,4.9-4ZM122.6,230.6l-8.7.3,4.4,3.7,4.4-4.1ZM139.4,230.6l-8.7.3c3.6,4.6,5.4,4.4,8.7-.3ZM314.2,230.6l-8.7.3c3.6,4.6,5.4,4.4,8.7-.3ZM331,230.6l-8.7.3,4.4,3.7,4.4-4.1ZM347.8,230.6l-8.7.3,4.4,3.7,4.4-4.1ZM77.6,243.4h64.5v-8.7s-7.6,6-7.6,6l-8-6.6-8.8,6.6-8.2-6.7-8.2,6.7c-1.4.2-5.7-5.9-8.1-6.5s-6.1,5.8-8.7,6.5l-6.9-5.3v8.1ZM296,243.4h54.5v-8.1s-7.6,5.3-7.6,5.3l-7.5-6.6-8.9,6.6-8.1-6.5-8.7,6.5-8.5-6.5c-4.1,2.2-6,4.3-5.2,9.3ZM147.5,248.1h-75.3l1.8,4.1h71.8l1.8-4.1ZM355.9,248.1h-59.8v4h58.5l1.3-4ZM75.5,257.8v18.8l1,1h67.6v-20.8h-4s-.4,5.4-.4,5.4h-4.3s0-5.4,0-5.4h-6.7s-.4,5.4-.4,5.4h-3.7s0-5.4,0-5.4h-6.7s-.4,5.4-.4,5.4h-4.3s0-5.4,0-5.4h-6.7v5.4s-4.7,0-4.7,0v-5.4s-6.7,0-6.7,0v5.4s-4,0-4,0v-5.4s-6.7,0-6.7,0v5.4s-4.7,0-4.7,0v-5.4s-4,1-4,1ZM296,256.8v20.8h12.8v-13.8c0-.4,3-5.2,2-7.1h-7.4s0,5.4,0,5.4h-3.7s-.4-5.4-.4-5.4h-3.4ZM328.3,277.7h23.2l1-1v-19.8h-4s-.4,5.4-.4,5.4h-4.3s.7-5.4.7-5.4h-7.4s.7,5.4.7,5.4h-4.3s-.4-5.4-.4-5.4h-6.7c-.8,3.7,1.6,6.3,2,9.8s-.3,7.5,0,11.1ZM316.2,270.3l-.3-7.4c-3.2,1.2-2.3,4.6-2.4,7.4h2.7ZM323.6,270.3c.2-3.1.6-5.9-2.7-7.4v7.4s2.7,0,2.7,0ZM89,279.7c-1.4.2-8.7-.6-8.7,1l4.4,3.6,4.4-4.6ZM106.5,279.7h-10.1l5,4.6,5-4.6ZM122.6,279.7h-9.4l5,4.7c.3-.9,5.4-3.8,4.4-4.7ZM140.1,279.7h-10.1l4.4,4.7,5.7-4.7ZM298.1,279.7h-9.4c-.3.9,1.6,2.5,2.1,2.9s1.5,1.2,2.3,1.7l5-4.6ZM314.9,279.7h-9.4c0,2.4,3.2,2.9,4.4,4.7l5-4.7ZM331.7,279.7h-10.1l5,4.7,5-4.7ZM348.5,279.7h-10.1l5,4.7,5-4.7ZM68.8,282.4v10.8h81l1-1v-9.7c-8.2-1.9-10.4,4.5-16.5,8.1l-7.5-7.4-8.6,7.3-8.2-7.3-8.6,7.2-8.7-7.2-8.2,7.2c-5.4-3.2-8.6-10.9-15.8-7.9ZM359.2,293.1v-10.4c-6.1-4.1-11.3,4.4-15.8,7.7l-8.2-7.3-8.6,7.3-8.2-7.3-8.6,7.3-8.6-7.3-8.2,7.3c-5.6-4.1-7.7-9.9-15.8-8,.8,3.4-1.3,8,1,10.8h81ZM154.2,305.9h-88.7v66.6h88.7v-66.6ZM362.6,305.9h-88.7v66.6h88.7v-66.6ZM216,351v-29.9c0-.7-1-5.1-1.2-6.2s-.3-2-1.4-2.3c-2.4,12.6-1,25.6-1.4,38.3h4ZM160.2,425.6h28.6l1-1v-17.5c0-1.6,2.4-8.4,3.2-10.2,3.4-6.9,13.1-12.9,20.1-15.9.2-.3-5.6-3.7-5.9-4.9-1.3-6.2,1-17.1,0-23.9M220.8,352.3v23.2c0,1.3-6.5,4.6-7.6,5.5,6.5,3.8,18.1,8.6,21.5,15.5.9,1.8,3.6,8.9,3.6,10.6v18.5h30.3M216,355.7h-4v19.2c0,.2,1.6,1.8,2.3,1.6.4,0,1.8-1.5,1.8-1.6v-19.2ZM154.2,377.2h-88.7v49.1h31.6v-23.9c0-5.6,4.2-15.1,8.3-18.9s4-3.7,7.2-1.3c4.9,3.7,10.1,13.5,10.1,19.5v24.5h31.6v-49.1ZM331,401.1v25.2h31.6v-49.1h-88.7v49.1h31.6v-23.2c0-5.1,3.4-13.6,6.7-17.5M324.9,395.3c-1.7-3.5-3.2-7.1-6.5-9.3-1.4-.3-6.3,6.8-6.3,8.4l6.4,5.7c2-1.7,3.5-4.4,6.4-4.7ZM251,390.3,326.3,426.3v-25.9c0-.3,1.7-1.2-.3-1-9.7,5.4-2.6,17.7-5.7,26.5l6.1.3ZM64.8,430.2v13.5h297.8v-13.5H64.8ZM154.2,459.2h-88.7v58.5h88.7v-58.5ZM236.3,602.8c0,1.3.8,2.9.5,4.4,9.6-1.1,20.5,1.1,29.9,0,1-.1,1.7,0,2.3-1v-146.9h-110.2v146.9l1,1h28.2l1-1M362.6,459.2h-88.7v58.5h88.7v-58.5ZM154.2,521.7h-88.7v85.4h88.7v-85.4ZM362.6,521.7h-88.7v85.4h88.7v-85.4ZM193.2,606.1c1.4,1.8,3.7.1,5.6.9l1.1-.9M215.4,606.1l1.1.8c1.7-.3,3.8.9,5-.8M226.1,607.1h6.1M60.8,574.2l-55.8,55.5-.5,79h56.3v-134.5ZM154.2,611.2h-88.7l-.2,97.5h89v-97.5ZM362.6,611.2h-88.7v97.5l88.4.3.3-97.7ZM269.2,623.9h-110.2v84.7c2-.5.7-2.1.7-3v-57.1c0-2,2.3-7.4,3.7-9,4.5-5.1,9-5.4,13.8-.4s4,6,4,7.4v62.2h.7v-45.4c0-5.5,5.5-15,9.1-19.2s18.3-17.1,23.6-17.5,26.4,18,29.1,24.7l3.5,9v-14.5c0-3.5,6.6-10.3,10.4-10.5s10.4,6.9,10.4,9.8v63.5h1.3v-84.7ZM242.9,708.6v-44.7c0-.5-1-4.5-1.3-5.4-3.6-11.3-16.6-22.5-27.3-27.2-9,4.8-18.8,12-24,21-.8,1.5-3.9,8.3-3.9,9.5v46.7h9.4v-45.4c0-7,6.7-16.1,12.6-19.7s6-3.5,11.2-.7,13.2,11.6,13.2,17v48.7h10.1ZM171,653.5v-13.4c-.5-.4-1.3,1.4-1.3,1.7v10.8c0,.1.9,1.1,1.3,1ZM211.3,708.6h5.6c0,0,1.1-1.7,1.1-1.7v-55.2c.3-1.5-1.8-6.1-3.1-6.3-1.1-.1-3.6,3.1-3.6,3.7v59.5ZM176.4,657.6h-12.1v51.1h12.1v-51.1ZM263.8,657.6h-12.1v51.1h12.1v-51.1ZM206.6,708.6v-46.1c0-.8-2-2.8-3-2.9-.6,0-3,3.1-3,3.5v45.4h6.1ZM228.8,708.6v-44.7c0-1-2.3-4.5-3.6-4.3s-3.1,3.5-3.1,4.3v44.7h6.7Z"/>
    <path class="st13" d="M338.3,562.4c0,11.1-9,20-20,20s-20-9-20-20,9-20,20-20,20,9,20,20ZM333.8,562.4c0-8.6-6.9-15.5-15.5-15.5s-15.5,6.9-15.5,15.5,6.9,15.5,15.5,15.5,15.5-6.9,15.5-15.5Z"/>
    <polygon class="st16" points="65.5 377.2 65.5 426.3 97.1 426.3 97.1 426.2 122.6 426.2 122.6 426.3 154.2 426.3 154.2 377.2 65.5 377.2"/>
    <polygon class="st16" points="275.5 379.2 275.5 426.3 306.5 426.3 306.5 426.2 331.5 426.2 331.5 426.3 362.4 426.3 362.4 379.2 275.5 379.2"/>
    <g>
      <path class="st1" d="M118.4,425.9h-18.2v-28.6c0-7.2,9.2-10.5,9.2-10.5,0,0,9,3.2,9,11.2v27.9Z"/>
      <path class="st2" d="M100.2,397.7s9.1.5,9.1,5.5v22.8"/>
      <path class="st2" d="M118.3,397.7s-9.1.5-9.1,5.5,0,22.8,0,22.8"/>
    </g>
    <g>
      <path class="st1" d="M329.5,425.9h-18.2v-28.6c0-7.2,9.2-10.5,9.2-10.5,0,0,9,3.2,9,11.2v27.9Z"/>
      <path class="st2" d="M311.3,397.7s9.1.5,9.1,5.5v22.8"/>
      <path class="st2" d="M329.4,397.7s-9.1.5-9.1,5.5,0,22.8,0,22.8"/>
    </g>
    <rect class="st16" x="171.9" y="491.6" width="94.9" height="115.6"/>
    <path class="st10" d="M184.9,549.6s-2.3-31.2,29.5-46c31,13.8,28.1,47.4,28.1,47.4"/>
    <g>
      <path class="st10" d="M213.7,608.7h-28.8v-59.1c0-15,14.5-21.7,14.5-21.7,0,0,14.3,6.7,14.3,23.1v57.7Z"/>
      <path class="st6" d="M184.9,550.3s14.4,1,14.4,11.3v47.1"/>
      <path class="st6" d="M213.6,550.3s-14.4,1-14.4,11.3,0,47.1,0,47.1"/>
    </g>
    <g>
      <path class="st10" d="M242.5,608.7h-28.8v-59.1c0-15,14.5-21.7,14.5-21.7,0,0,14.3,6.7,14.3,23.1v57.7Z"/>
      <path class="st6" d="M213.6,550.3s14.4,1,14.4,11.3v47.1"/>
      <path class="st6" d="M242.4,550.3s-14.4,1-14.4,11.3c0,10.3,0,47.1,0,47.1"/>
    </g>
    <polyline class="st0" points="318.3 546.9 318.3 562.4 334.1 557.7"/>
    <path class="st16" d="M150.8,279.6v13.3h-82v-13.3h82Z"/>
    <path class="st16" d="M144,256.4v15.3h-68.4v-15.3h68.4Z"/>
    <path class="st16" d="M144,230.9v12.7h-68.4v-12.7h68.4Z"/>
    <path class="st16" d="M131.7,205v22.9h-39.9v-22.9h39.9Z"/>
    <path class="st16" d="M350.6,230.5v13.1h-54.5v-13.1h54.5Z"/>
    <path class="st16" d="M340.1,205v22.9h-39.9v-22.9h39.9Z"/>
    <path class="st16" d="M352.1,256.4v21.3h-55.9v-21.3h55.9Z"/>
    <path class="st16" d="M359.4,279.6v13.3h-82v-13.3h82Z"/>
    <path class="st16" d="M269.2,624.1v84.6h-109.8v-84.6h109.8Z"/>
    <path class="st9" d="M182.5,665.7s-2.5-23.6,33-34.8c34.6,10.4,31.4,35.9,31.4,35.9"/>
    <path class="st9" d="M214.7,710.4h-32.3v-44.7c0-11.3,16.3-16.4,16.3-16.4,0,0,16,5.1,16,17.5v43.6Z"/>
    <path class="st9" d="M246.9,710.4h-32.3v-44.7c0-11.3,16.3-16.4,16.3-16.4,0,0,16,5.1,16,17.5v43.6Z"/>
    <line class="st7" x1="246.9" y1="666.7" x2="182.5" y2="666.7"/>
  </g>
  <g id="Ebene_3">
    <polygon class="st4" points="426.4 711.9 426.4 628.2 364.9 569.3 364.9 711.6 426.4 711.9"/>
    <rect class="st15" x="181.5" y="394.7" width="63.7" height="30.8"/>
    <polyline class="st15" points="214.2 381.2 209.6 381.7 192.9 392.3 192.9 398.1 236 397.4 235.5 390.6 214.2 381.2"/>
    <path class="st15" d="M207.3,380.1"/>
    <path class="st3" d="M230.4,427h-32.9v-33.8c0-8.6,16.6-12.4,16.6-12.4,0,0,16.3,3.8,16.3,13.2v33Z"/>
  </g>
  <g id="Ebene_4">
    <line class="st5" x1="365.9" y1="580.9" x2="365.9" y2="710.1"/>
    <line class="st5" x1="66.7" y1="451.3" x2="365.8" y2="451.3"/>
    <line class="st5" y1="622.1" x2="299.1" y2="622.1"/>
    <line class="st5" x1="66.7" y1="300.3" x2="154.2" y2="300.3"/>
    <line class="st5" x1="72.2" y1="247.5" x2="147.5" y2="247.5"/>
    <line class="st5" x1="275.2" y1="300.3" x2="362.8" y2="300.3"/>
    <line class="st5" x1="278.7" y1="247.5" x2="354" y2="247.5"/>
    <line class="st5" x1="158.7" y1="417" x2="158.7" y2="712.7"/>
    <line class="st5" x1="269.5" y1="417" x2="269.5" y2="712.7"/>
    <line class="st5" x1="294.6" y1="160.9" x2="294.6" y2="234.1"/>
    <line class="st5" x1="64.5" y1="580.9" x2="64.5" y2="710.1"/>
  </g>
</svg>