<?xml version="1.0" encoding="UTF-8"?>
<svg xmlns="http://www.w3.org/2000/svg" xmlns:xlink="http://www.w3.org/1999/xlink" version="1.1" viewBox="0 0 249.8 174.8">
  <!-- Generator: Adobe Illustrator 29.5.0, SVG Export Plug-In . SVG Version: 2.1.0 Build 137)  -->
  <defs>
    <style>
      .st0 {
        fill: #4f0e59;
      }

      .st1 {
        fill: #713d83;
        mix-blend-mode: multiply;
        opacity: .2;
      }

      .st2 {
        fill: #893598;
      }

      .st3 {
        fill: #ff4392;
      }

      .st4 {
        fill: #d9506c;
      }

      .st5 {
        isolation: isolate;
      }

      .st6 {
        fill: #e08453;
      }

      .st7 {
        clip-path: url(#clippath-1);
      }

      .st8 {
        clip-path: url(#clippath-3);
      }

      .st9 {
        clip-path: url(#clippath-4);
      }

      .st10 {
        clip-path: url(#clippath-2);
      }

      .st11 {
        clip-path: url(#clippath-6);
      }

      .st12 {
        clip-path: url(#clippath-5);
      }

      .st13 {
        fill: #6595bc;
      }

      .st14 {
        fill: #ffb54b;
      }

      .st15 {
        fill: #ffcf7f;
      }

      .st16 {
        fill: url(#Degradado_sin_nombre_15);
      }

      .st17 {
        fill: #ffb55b;
      }

      .st18 {
        fill: #ffcf53;
      }

      .st19 {
        clip-path: url(#clippath);
      }
    </style>
    <linearGradient id="Degradado_sin_nombre_15" data-name="Degradado sin nombre 15" x1="126.3" y1="76.8" x2="126.3" y2="15.8" gradientUnits="userSpaceOnUse">
      <stop offset="0" stop-color="#d9506c"/>
      <stop offset="1" stop-color="#b04058"/>
    </linearGradient>
    <clipPath id="clippath">
      <path class="st2" d="M111.1,68.8l-4.5,1.8,3.4-2.8c-1.8-1.6-3.7-3-5.8-4.4l-3.9.8,2.5-1.7c-1.7-1-3.4-1.9-5.3-2.7l-2,2.6.4-3.2c-3.7-1.4-7.8-2.5-12.3-2.9,1.4,5.6,3.4,10.4,5.6,14.7l3.7-1.2-2.3,3.6c.4.8.9,1.5,1.4,2.2l4.5-2-3.3,3.8c14.9,21.3,38,24.5,38,24.5,0,0-5.1-19.7-20.1-33.3Z"/>
    </clipPath>
    <clipPath id="clippath-1">
      <path class="st2" d="M142.6,70.9l4.6,1.4-3.6-2.5c1.7-1.7,3.5-3.3,5.5-4.8l4,.5-2.6-1.5c1.6-1.1,3.3-2.1,5.1-3.1l2.2,2.4-.7-3.2c3.6-1.7,7.6-3.1,12-3.9-1,5.7-2.5,10.7-4.5,15.1l-3.8-.9,2.6,3.4c-.4.8-.8,1.6-1.2,2.3l-4.7-1.6,3.6,3.5c-13.2,22.4-36,27.4-36,27.4,0,0,3.5-20,17.4-34.7Z"/>
    </clipPath>
    <clipPath id="clippath-2">
      <path class="st2" d="M117.9,81.2l4.2-2.5-4.3.9c0-2.4,0-4.8.2-7.3l3.1-2.6-2.9.9c.3-1.9.7-3.9,1.2-5.8h3.2c0,0-2.8-1.6-2.8-1.6,1.2-3.8,2.9-7.7,5.3-11.4,3.5,4.6,6.1,9.1,8.1,13.6l-3.2,2.1,4.3.4c.3.8.6,1.6.9,2.5l-4.3,2.3,5-.2c7.5,24.9-4.4,45-4.4,45,0,0-12.3-16.2-13.7-36.4Z"/>
    </clipPath>
    <clipPath id="clippath-3">
      <path class="st15" d="M214.7,78c-42.1-15.8-88.6,11.3-88.6,11.3,0,0-46.4-27.1-88.5-11.3,4,28.6-9.7,79.5,15,86.6,24.5,7,72.6-26.9,73.5-27.8.9.9,49,34.8,73.5,27.8,24.8-7.1,11.1-57.9,15-86.6Z"/>
    </clipPath>
    <clipPath id="clippath-4">
      <path class="st18" d="M13.4,81c0-3.4-2.8-6.2-6.2-6.2s-6.2,2.8-6.2,6.2,2.8,6.2,6.2,6.2,6.2-2.8,6.2-6.2Z"/>
    </clipPath>
    <clipPath id="clippath-5">
      <path class="st18" d="M236.4,81c0-3.4,2.8-6.2,6.2-6.2s6.2,2.8,6.2,6.2-2.8,6.2-6.2,6.2-6.2-2.8-6.2-6.2Z"/>
    </clipPath>
    <clipPath id="clippath-6">
      <path class="st18" d="M121.2,44.9c-1.9-2.8-1.2-6.6,1.5-8.6,2.8-1.9,6.6-1.2,8.6,1.5,1.9,2.8,1.2,6.6-1.5,8.6-2.8,1.9-6.6,1.2-8.6-1.5Z"/>
    </clipPath>
  </defs>
  <g class="st5">
    <g id="OBJECTS">
      <g>
        <path class="st16" d="M52.4,86.7s-8.7-57.5-24.6-61C11.8,22.2,33.7.1,61.7,12.3c28,12.2,43.7,30.8,43.7,30.8l5.9-37.2h28l7.3,40.4s18.4-27,42.3-34.6c23.9-7.5,39.6,0,41.3,9.3,1.7,9.3-30.8,21.5-28.4,61-93.4,21-149.3,4.7-149.3,4.7Z"/>
        <g>
          <path class="st2" d="M111.1,68.8l-4.5,1.8,3.4-2.8c-1.8-1.6-3.7-3-5.8-4.4l-3.9.8,2.5-1.7c-1.7-1-3.4-1.9-5.3-2.7l-2,2.6.4-3.2c-3.7-1.4-7.8-2.5-12.3-2.9,1.4,5.6,3.4,10.4,5.6,14.7l3.7-1.2-2.3,3.6c.4.8.9,1.5,1.4,2.2l4.5-2-3.3,3.8c14.9,21.3,38,24.5,38,24.5,0,0-5.1-19.7-20.1-33.3Z"/>
          <g class="st19">
            <path class="st1" d="M80,50.9l3.6,5.5s40,31.1,54.7,56.2c-20.5,4.5-59.5-38.3-59.5-38.3l1.2-23.4Z"/>
          </g>
        </g>
        <g>
          <path class="st2" d="M142.6,70.9l4.6,1.4-3.6-2.5c1.7-1.7,3.5-3.3,5.5-4.8l4,.5-2.6-1.5c1.6-1.1,3.3-2.1,5.1-3.1l2.2,2.4-.7-3.2c3.6-1.7,7.6-3.1,12-3.9-1,5.7-2.5,10.7-4.5,15.1l-3.8-.9,2.6,3.4c-.4.8-.8,1.6-1.2,2.3l-4.7-1.6,3.6,3.5c-13.2,22.4-36,27.4-36,27.4,0,0,3.5-20,17.4-34.7Z"/>
          <g class="st7">
            <path class="st1" d="M172.2,50.6l-3.1,5.7s-37.5,34.2-50.1,60.3c20.8,2.9,56.3-42.8,56.3-42.8l-3-23.2Z"/>
          </g>
        </g>
        <g>
          <path class="st2" d="M117.9,81.2l4.2-2.5-4.3.9c0-2.4,0-4.8.2-7.3l3.1-2.6-2.9.9c.3-1.9.7-3.9,1.2-5.8h3.2c0,0-2.8-1.6-2.8-1.6,1.2-3.8,2.9-7.7,5.3-11.4,3.5,4.6,6.1,9.1,8.1,13.6l-3.2,2.1,4.3.4c.3.8.6,1.6.9,2.5l-4.3,2.3,5-.2c7.5,24.9-4.4,45-4.4,45,0,0-12.3-16.2-13.7-36.4Z"/>
          <g class="st10">
            <path class="st1" d="M123.1,45.7l2.1,6.2s-.4,50.7,10.2,77.7c16.2-13.3,6.8-70.4,6.8-70.4l-19.1-13.5Z"/>
          </g>
        </g>
        <g>
          <path class="st13" d="M40.8,81.4l-10.9,3.6s.8,23.6-1.7,46.2c-2.9,26.4,9,47.7,42.9,27.6"/>
          <path class="st13" d="M210,81.4l10.9,3.6s-.8,23.6,1.7,46.2c2.9,26.4-9,47.7-42.9,27.6"/>
          <g>
            <path class="st15" d="M214.7,78c-42.1-15.8-88.6,11.3-88.6,11.3,0,0-46.4-27.1-88.5-11.3,4,28.6-9.7,79.5,15,86.6,24.5,7,72.6-26.9,73.5-27.8.9.9,49,34.8,73.5,27.8,24.8-7.1,11.1-57.9,15-86.6Z"/>
            <g class="st8">
              <polygon class="st17" points="126.2 95.6 113.7 153.5 138.4 153 126.2 95.6"/>
              <polygon class="st6" points="126.2 116.9 113.7 174.8 138.4 174.3 126.2 116.9"/>
              <path class="st3" d="M45.5,141.7s3.9,31.3,34.8,14.4c-19.9,2.3-34.8-14.4-34.8-14.4Z"/>
              <path class="st3" d="M207.6,141.7s-3.9,31.3-34.8,14.4c19.9,2.3,34.8-14.4,34.8-14.4Z"/>
            </g>
          </g>
          <g>
            <path class="st0" d="M115.8,120.5s-26.1-34-50.9-13.7c11.9,42.9,50.9,13.7,50.9,13.7Z"/>
            <path class="st0" d="M136.5,120.5s26.1-34,50.9-13.7c-11.9,42.9-50.9,13.7-50.9,13.7Z"/>
          </g>
          <g>
            <circle class="st13" cx="60.4" cy="97.4" r="3"/>
            <path class="st13" d="M63.4,116.3c0,1.6-1.3,3-3,3s-3-1.3-3-3,1.3-3,3-3,3,1.3,3,3Z"/>
            <path class="st13" d="M78.7,134.1c0,1.6-1.3,3-3,3s-3-1.3-3-3,1.3-3,3-3,3,1.3,3,3Z"/>
            <path class="st13" d="M104,135.7c0,1.6-1.3,3-3,3s-3-1.3-3-3,1.3-3,3-3,3,1.3,3,3Z"/>
            <circle class="st13" cx="55.4" cy="106.3" r="3"/>
            <path class="st13" d="M75.7,93.1c0,1.6-1.3,3-3,3s-3-1.3-3-3,1.3-3,3-3,3,1.3,3,3Z"/>
            <path class="st13" d="M69.3,126.1c0,1.6-1.3,3-3,3s-3-1.3-3-3,1.3-3,3-3,3,1.3,3,3Z"/>
            <path class="st13" d="M91.2,137.5c0,1.6-1.3,3-3,3s-3-1.3-3-3,1.3-3,3-3,3,1.3,3,3Z"/>
            <path class="st13" d="M89.3,93.1c0,1.6-1.3,3-3,3s-3-1.3-3-3,1.3-3,3-3,3,1.3,3,3Z"/>
            <path class="st13" d="M101,97.4c0,1.6-1.3,3-3,3s-3-1.3-3-3,1.3-3,3-3,3,1.3,3,3Z"/>
            <path class="st13" d="M111.3,103.3c0,1.6-1.3,3-3,3s-3-1.3-3-3,1.3-3,3-3,3,1.3,3,3Z"/>
          </g>
          <g>
            <path class="st13" d="M187.2,97.4c0,1.6,1.3,3,3,3s3-1.3,3-3-1.3-3-3-3-3,1.3-3,3Z"/>
            <path class="st13" d="M187.2,116.3c0,1.6,1.3,3,3,3s3-1.3,3-3-1.3-3-3-3-3,1.3-3,3Z"/>
            <path class="st13" d="M171.9,134.1c0,1.6,1.3,3,3,3s3-1.3,3-3-1.3-3-3-3-3,1.3-3,3Z"/>
            <path class="st13" d="M146.6,135.7c0,1.6,1.3,3,3,3s3-1.3,3-3-1.3-3-3-3-3,1.3-3,3Z"/>
            <circle class="st13" cx="195.2" cy="106.3" r="3"/>
            <path class="st13" d="M174.8,93.1c0,1.6,1.3,3,3,3s3-1.3,3-3-1.3-3-3-3-3,1.3-3,3Z"/>
            <path class="st13" d="M181.3,126.1c0,1.6,1.3,3,3,3s3-1.3,3-3-1.3-3-3-3-3,1.3-3,3Z"/>
            <path class="st13" d="M159.3,137.5c0,1.6,1.3,3,3,3s3-1.3,3-3-1.3-3-3-3-3,1.3-3,3Z"/>
            <path class="st13" d="M161.2,93.1c0,1.6,1.3,3,3,3s3-1.3,3-3-1.3-3-3-3-3,1.3-3,3Z"/>
            <path class="st13" d="M149.5,97.4c0,1.6,1.3,3,3,3s3-1.3,3-3-1.3-3-3-3-3,1.3-3,3Z"/>
            <path class="st13" d="M139.3,103.3c0,1.6,1.3,3,3,3s3-1.3,3-3-1.3-3-3-3-3,1.3-3,3Z"/>
          </g>
        </g>
        <path class="st4" d="M111.3,5.9l15,35.4,13-35.4s-12.7-13.4-28,0Z"/>
        <path class="st4" d="M58.3,11S29.8,5.1,24.5,30c-5,23.6.6,43.5-19.4,50.8,4-14.3,3.7-31.7.7-52.8C2.2,2.1,27.8-8.6,58.3,11Z"/>
        <g>
          <path class="st18" d="M13.4,81c0-3.4-2.8-6.2-6.2-6.2s-6.2,2.8-6.2,6.2,2.8,6.2,6.2,6.2,6.2-2.8,6.2-6.2Z"/>
          <g class="st9">
            <path class="st14" d="M.6,78.4c-.2,2.2,1,4.4,2.8,5.6.4.3,1,.5,1.5.5,1.3,0,2.2-1.4,3.1-2.3,1.7-1.8,4.2-2.5,6.6-3,.6-.1,1.4-.2,1.9,0,.8.5,1,1.6.7,2.6-.3,1.5-1.3,2.8-2.5,3.7-1.2,1-2.6,1.6-4,2.2-1.3.6-2.7,1.1-4.1,1.4-1.3.3-2.7.5-3.8,0-1.3-.6-2-2.1-2.3-3.5-.4-1.6-.6-3.3-.4-5"/>
          </g>
        </g>
        <path class="st4" d="M191.5,11s28.5-5.9,33.9,19c5,23.6-.6,43.5,19.4,50.8-4-14.3-3.7-31.7-.7-52.8,3.7-25.9-18.9-34.4-52.5-17Z"/>
        <g>
          <path class="st18" d="M236.4,81c0-3.4,2.8-6.2,6.2-6.2s6.2,2.8,6.2,6.2-2.8,6.2-6.2,6.2-6.2-2.8-6.2-6.2Z"/>
          <g class="st12">
            <path class="st14" d="M249.2,78.4c.2,2.2-1,4.4-2.8,5.6-.4.3-1,.5-1.5.5-1.3,0-2.2-1.4-3.1-2.3-1.7-1.8-4.2-2.5-6.6-3-.6-.1-1.4-.2-1.9,0-.8.5-1,1.6-.7,2.6.3,1.5,1.3,2.8,2.5,3.7,1.2,1,2.6,1.6,4,2.2,1.3.6,2.7,1.1,4.1,1.4,1.3.3,2.7.5,3.8,0,1.3-.6,2-2.1,2.3-3.5.4-1.6.6-3.3.4-5"/>
          </g>
        </g>
        <g>
          <path class="st18" d="M121.2,44.9c-1.9-2.8-1.2-6.6,1.5-8.6,2.8-1.9,6.6-1.2,8.6,1.5,1.9,2.8,1.2,6.6-1.5,8.6-2.8,1.9-6.6,1.2-8.6-1.5Z"/>
          <g class="st11">
            <path class="st14" d="M130.3,35.4c1.4,1.7,1.7,4.2.9,6.2-.2.5-.5,1-.9,1.3-1.1.7-2.5.1-3.8-.1-2.4-.5-4.9.4-7.1,1.3-.6.3-1.3.6-1.5,1.2-.4.9.1,1.9.8,2.5,1.1,1,2.7,1.5,4.2,1.6,1.5,0,3.1-.2,4.6-.5,1.4-.3,2.8-.7,4.2-1.2,1.2-.5,2.5-1.1,3.1-2.3.7-1.3.4-2.8,0-4.2-.6-1.6-1.4-3.1-2.5-4.3"/>
          </g>
        </g>
      </g>
    </g>
  </g>
</svg>