<?xml version="1.0" encoding="UTF-8"?>
<svg id="Ebene_1" xmlns="http://www.w3.org/2000/svg" xmlns:xlink="http://www.w3.org/1999/xlink" version="1.1" viewBox="0 0 1159.4 742.2">
  <!-- Generator: Adobe Illustrator 29.5.0, SVG Export Plug-In . SVG Version: 2.1.0 Build 137)  -->
  <defs>
    <style>
      .st0 {
        fill: url(#Unbenannter_Verlauf);
      }

      .st1 {
        fill: url(#Unbenannter_Verlauf_2);
      }

      .st2 {
        fill: url(#Unbenannter_Verlauf_4);
      }

      .st3 {
        fill: url(#Unbenannter_Verlauf_3);
      }

      .st4 {
        fill: url(#Unbenannter_Verlauf_8);
      }

      .st5 {
        fill: url(#Unbenannter_Verlauf_6);
      }

      .st6 {
        fill: url(#Unbenannter_Verlauf_5);
      }

      .st7 {
        fill: url(#Unbenannter_Verlauf_9);
      }

      .st8 {
        stroke: url(#Unbenannter_Verlauf_7);
        stroke-miterlimit: 10;
        stroke-width: 18.1px;
      }

      .st8, .st9 {
        fill: #333;
      }

      .st10 {
        fill: url(#Unbenannter_Verlauf_14);
      }

      .st11 {
        fill: url(#Unbenannter_Verlauf_15);
      }

      .st12 {
        fill: url(#Unbenannter_Verlauf_12);
      }

      .st13 {
        fill: url(#Unbenannter_Verlauf_13);
      }

      .st14 {
        fill: url(#Unbenannter_Verlauf_16);
      }

      .st15 {
        fill: url(#Unbenannter_Verlauf_10);
      }

      .st16 {
        fill: url(#Unbenannter_Verlauf_11);
      }
    </style>
    <linearGradient id="Unbenannter_Verlauf" data-name="Unbenannter Verlauf" x1="315.9" y1="582.8" x2="841.7" y2="582.8" gradientTransform="translate(0 972.4) scale(1 -1)" gradientUnits="userSpaceOnUse">
      <stop offset="0" stop-color="#999"/>
      <stop offset=".5" stop-color="#fff"/>
      <stop offset="1" stop-color="#999"/>
    </linearGradient>
    <linearGradient id="Unbenannter_Verlauf_2" data-name="Unbenannter Verlauf 2" x1="424.9" y1="573.1" x2="487" y2="573.1" gradientTransform="translate(0 972.4) scale(1 -1)" gradientUnits="userSpaceOnUse">
      <stop offset="0" stop-color="#333"/>
      <stop offset=".5" stop-color="gray"/>
      <stop offset="1" stop-color="#333"/>
    </linearGradient>
    <linearGradient id="Unbenannter_Verlauf_3" data-name="Unbenannter Verlauf 3" x1="483" y1="573.1" x2="558.5" y2="573.1" gradientTransform="translate(0 972.4) scale(1 -1)" gradientUnits="userSpaceOnUse">
      <stop offset="0" stop-color="#333"/>
      <stop offset=".5" stop-color="gray"/>
      <stop offset="1" stop-color="#333"/>
    </linearGradient>
    <linearGradient id="Unbenannter_Verlauf_4" data-name="Unbenannter Verlauf 4" x1="564.2" y1="572.6" x2="626.2" y2="572.6" gradientTransform="translate(0 972.4) scale(1 -1)" gradientUnits="userSpaceOnUse">
      <stop offset="0" stop-color="#333"/>
      <stop offset=".5" stop-color="gray"/>
      <stop offset="1" stop-color="#333"/>
    </linearGradient>
    <linearGradient id="Unbenannter_Verlauf_5" data-name="Unbenannter Verlauf 5" x1="630.4" y1="573" x2="687.3" y2="573" gradientTransform="translate(0 972.4) scale(1 -1)" gradientUnits="userSpaceOnUse">
      <stop offset="0" stop-color="#333"/>
      <stop offset=".5" stop-color="gray"/>
      <stop offset="1" stop-color="#333"/>
    </linearGradient>
    <linearGradient id="Unbenannter_Verlauf_6" data-name="Unbenannter Verlauf 6" x1="687.2" y1="573.1" x2="732.7" y2="573.1" gradientTransform="translate(0 972.4) scale(1 -1)" gradientUnits="userSpaceOnUse">
      <stop offset="0" stop-color="#333"/>
      <stop offset=".5" stop-color="gray"/>
      <stop offset="1" stop-color="#333"/>
    </linearGradient>
    <linearGradient id="Unbenannter_Verlauf_7" data-name="Unbenannter Verlauf 7" x1="0" y1="421.9" x2="1157.6" y2="421.9" gradientTransform="translate(0 972.4) scale(1 -1)" gradientUnits="userSpaceOnUse">
      <stop offset="0" stop-color="#999"/>
      <stop offset=".5" stop-color="#fff"/>
      <stop offset="1" stop-color="#999"/>
    </linearGradient>
    <linearGradient id="Unbenannter_Verlauf_8" data-name="Unbenannter Verlauf 8" x1="71.1" y1="422" x2="181.7" y2="422" gradientTransform="translate(0 972.4) scale(1 -1)" gradientUnits="userSpaceOnUse">
      <stop offset="0" stop-color="#999"/>
      <stop offset=".5" stop-color="#fff"/>
      <stop offset="1" stop-color="#999"/>
    </linearGradient>
    <linearGradient id="Unbenannter_Verlauf_9" data-name="Unbenannter Verlauf 9" x1="165.2" y1="421.9" x2="299.8" y2="421.9" gradientTransform="translate(0 972.4) scale(1 -1)" gradientUnits="userSpaceOnUse">
      <stop offset="0" stop-color="#999"/>
      <stop offset=".5" stop-color="#fff"/>
      <stop offset="1" stop-color="#999"/>
    </linearGradient>
    <linearGradient id="Unbenannter_Verlauf_10" data-name="Unbenannter Verlauf 10" x1="309" y1="422.1" x2="423.3" y2="422.1" gradientTransform="translate(0 972.4) scale(1 -1)" gradientUnits="userSpaceOnUse">
      <stop offset="0" stop-color="#999"/>
      <stop offset=".5" stop-color="#fff"/>
      <stop offset="1" stop-color="#999"/>
    </linearGradient>
    <linearGradient id="Unbenannter_Verlauf_11" data-name="Unbenannter Verlauf 11" x1="428.1" y1="421.9" x2="560" y2="421.9" gradientTransform="translate(0 972.4) scale(1 -1)" gradientUnits="userSpaceOnUse">
      <stop offset="0" stop-color="#999"/>
      <stop offset=".5" stop-color="#fff"/>
      <stop offset="1" stop-color="#999"/>
    </linearGradient>
    <linearGradient id="Unbenannter_Verlauf_12" data-name="Unbenannter Verlauf 12" x1="556.2" y1="422" x2="666.8" y2="422" gradientTransform="translate(0 972.4) scale(1 -1)" gradientUnits="userSpaceOnUse">
      <stop offset="0" stop-color="#999"/>
      <stop offset=".5" stop-color="#fff"/>
      <stop offset="1" stop-color="#999"/>
    </linearGradient>
    <linearGradient id="Unbenannter_Verlauf_13" data-name="Unbenannter Verlauf 13" x1="669.5" y1="421.9" x2="750.7" y2="421.9" gradientTransform="translate(0 972.4) scale(1 -1)" gradientUnits="userSpaceOnUse">
      <stop offset="0" stop-color="#999"/>
      <stop offset=".5" stop-color="#fff"/>
      <stop offset="1" stop-color="#999"/>
    </linearGradient>
    <linearGradient id="Unbenannter_Verlauf_14" data-name="Unbenannter Verlauf 14" x1="746.5" y1="421.9" x2="881.1" y2="421.9" gradientTransform="translate(0 972.4) scale(1 -1)" gradientUnits="userSpaceOnUse">
      <stop offset="0" stop-color="#999"/>
      <stop offset=".5" stop-color="#fff"/>
      <stop offset="1" stop-color="#999"/>
    </linearGradient>
    <linearGradient id="Unbenannter_Verlauf_15" data-name="Unbenannter Verlauf 15" x1="886.5" y1="421.9" x2="984.8" y2="421.9" gradientTransform="translate(0 972.4) scale(1 -1)" gradientUnits="userSpaceOnUse">
      <stop offset="0" stop-color="#999"/>
      <stop offset=".5" stop-color="#fff"/>
      <stop offset="1" stop-color="#999"/>
    </linearGradient>
    <linearGradient id="Unbenannter_Verlauf_16" data-name="Unbenannter Verlauf 16" x1="975.2" y1="421.9" x2="1086.6" y2="421.9" gradientTransform="translate(0 972.4) scale(1 -1)" gradientUnits="userSpaceOnUse">
      <stop offset="0" stop-color="#999"/>
      <stop offset=".5" stop-color="#fff"/>
      <stop offset="1" stop-color="#999"/>
    </linearGradient>
  </defs>
  <image width="1176" height="980" transform="translate(646.7 -25.5) rotate(26.8) scale(.6)" xlink:href="../../Figma/Hilfsdaten/Basel-Flag.png"/>
  <g>
    <path class="st0" d="M315.9,453.4l58.2-99.7c9.9-17,33.3-28,59.4-28h293.2c26.2,0,49.7,11.2,59.5,28.3l55.5,97"/>
    <path class="st9" d="M315.9,453.4c7.9-19.1,16.4-38,24.9-56.9,4.5-9.3,8.1-19.1,13.9-27.6,3.1-4.9,7.4-12.6,10.4-17.7,1.9-3.4,4.3-6.9,6.8-9.8,15.8-17.7,39.7-24.8,62.7-24.7h61.7c72.2.2,165.1-.4,237,.2,19.2,1.3,38.3,7.8,52.4,21.6,2.2,2.1,4.1,4.7,6,7.1,1.6,2.3,3.1,4.9,4.4,7.3,3.3,5.9,6.9,12,10.4,17.7,7,13.8,12.8,28.2,19.1,42.3,4.7,10.9,11.8,27.2,16.2,38.1-7.2-9.3-17.6-23.6-24.6-33.3-9-12.6-18.4-24.9-26.8-38-2.4-4.6-4.9-9-7.5-13.5-1.9-3.2-4-7.3-6.1-10.3-8.2-11.3-22-17.4-35.6-19.9-6.2-1.2-12.5-1.4-18.8-1.3h-289c-5.8,0-11.6.6-17.2,1.9-12.7,2.9-25.6,9.1-33,19.8-2.1,3.1-5.6,9.6-7.6,12.7-3.6,5.8-6.5,12.1-10.3,17.8-4,5.6-8,11.2-12.1,16.8-12.2,16.7-24.5,33.3-37.3,49.6h0Z"/>
  </g>
  <g>
    <path class="st1" d="M435,374.9h33.4c6.5,0,11.3.8,14.2,2.5,3,1.7,4.4,4.2,4.4,7.4s0,1.9-.3,2.8c-.4,1.7-1,3.1-1.8,4.4-.8,1.2-1.9,2.3-3.1,3.2-1.2.9-2.6,1.6-4.1,2.2-1.5.6-3.1,1.1-4.8,1.5h0c1.5.2,2.9.5,4.3.8,1.4.4,2.6.9,3.7,1.7,1.1.7,1.9,1.7,2.5,2.8s.9,2.5.9,4.1,0,1.7-.3,2.8c-.4,1.9-1,3.6-2,5.1s-2.1,2.8-3.4,3.7c-.9.7-1.9,1.3-2.8,1.7-.9.5-2.1.9-3.4,1.2s-2.9.5-4.7.7-4,.2-6.7.2h-36l10.1-48.8h-.1ZM447.2,415.1h6.1c3.6,0,6.2-.5,7.8-1.4,1.6-.9,2.7-2.4,3.1-4.5.1-.5.2-1.1.2-1.6,0-1.5-.7-2.6-2-3.3s-3.6-1-6.7-1h-6.1l-2.4,11.8ZM451.4,394.7h6.1c3,0,5.1-.5,6.4-1.5s2.1-2.3,2.5-3.9c.1-.6.2-1.1.2-1.7,0-1.2-.5-2.1-1.5-2.7-1-.6-2.8-.9-5.5-.9h-6l-2.2,10.7h0Z"/>
    <path class="st3" d="M518.1,374.9h25.6l14.7,48.8h-22.7l-2-8.1h-25.2l-5.4,8.1h-20.2l35-48.8h.2ZM531.3,405l-4-17-11.5,17h15.5Z"/>
    <path class="st2" d="M585.7,408.1c-.2,1.1-.3,2.1-.3,2.8,0,1.3.3,2.3.9,3.2.5.6,1.3,1.1,2.1,1.5.9.3,2,.5,3.3.5s2.2,0,3.2-.2,2.1-.4,3-.8c.9-.4,1.7-.9,2.4-1.5s1.1-1.4,1.3-2.4v-.6c0-.6-.2-1.1-.5-1.6-.4-.5-1.2-1-2.6-1.5-1.4-.5-3-1-5-1.5s-4.1-1-6.3-1.6c-2.3-.5-4.5-1.1-6.6-1.8s-4.1-1.4-5.8-2.2-3.1-1.7-4-2.6c-.8-.8-1.3-1.6-1.6-2.6s-.4-2-.4-3,0-1.8.3-2.8c1.1-5.4,4.4-9.3,9.8-11.8,5.4-2.5,13-3.7,22.8-3.7s8.4.3,11.5.8,5.6,1.3,7.5,2.4,3.3,2.3,4.1,3.9c.8,1.5,1.3,3.3,1.3,5.3s0,1.1,0,1.7c0,.6,0,1.2-.2,1.8h-20.2c0-.3,0-.6,0-.9s0-.5,0-.7c0-1.7-.5-2.9-1.5-3.8-.6-.5-1.4-.8-2.4-1-.9-.2-2.1-.3-3.4-.3-2.2,0-3.9.4-5.2,1.1s-2.1,1.7-2.3,3v.7c0,.3,0,.5,0,.8,0,.3.2.5.4.7.4.5,1.3,1,2.7,1.5s3.1,1,5,1.5,4,1,6.2,1.6c2.2.5,4.4,1.1,6.5,1.8s4,1.4,5.6,2.2,3,1.7,3.9,2.6c.6.6,1.2,1.4,1.6,2.4.5,1,.7,2.2.7,3.7s0,.9,0,1.4,0,1-.3,1.6c-.5,2.4-1.5,4.6-3,6.6s-3.6,3.6-6.4,5c-2.8,1.4-6.2,2.5-10.2,3.2-4.1.7-8.9,1.1-14.4,1.1s-9.6-.3-12.9-.9c-3.3-.6-5.9-1.4-7.7-2.5s-3.1-2.3-3.7-3.7c-.6-1.4-.9-3-.9-4.6s0-1.7.2-2.6c0-.9.2-1.8.4-2.7h21v-.5Z"/>
    <path class="st6" d="M640.5,374.9h46.8l-2.2,10.3h-26.9l-1.9,9h25.2l-2.1,10.3h-25.2l-1.9,9h27.2l-2.1,10.3h-47.1l10.1-48.8h.1Z"/>
    <path class="st5" d="M697.4,374.9h20.6l-7.7,36.9h22.5l-2.4,11.9h-43.1l10.1-48.8h0Z"/>
  </g>
  <path class="st8" d="M1085.7,644.6H48.5c-25.1,0-43.9-23.2-38.6-47.7l23.4-109.4c3.9-18.2,20-31.2,38.6-31.2h1037.1c25.1,0,43.9,23.2,38.6,47.7l-23.4,109.4c-3.9,18.2-20,31.2-38.6,31.2h.1Z"/>
  <g>
    <path class="st4" d="M89.2,506.9h62.1c4.5,0,8.6.4,12.4,1.1,3.7.8,6.9,2,9.6,3.7s4.7,3.9,6.2,6.6c1.4,2.7,2.2,6.1,2.2,10.1s0,2.8-.2,4.2c-.1,1.4-.4,2.9-.8,4.5-1.1,5.3-2.9,9.8-5.3,13.5-2.4,3.7-5.3,6.6-8.7,8.9s-7.1,3.9-11.3,4.9c-4.1,1-8.5,1.5-13.1,1.5h-28.7l-5.8,28h-36.7l18.1-87.1h0ZM117.3,547.7h7.5c6.5,0,11.3-.8,14.3-2.5s5-4.7,5.8-8.9c.2-1.2.4-2.3.4-3.3,0-2.6-.9-4.5-2.8-5.8-1.9-1.3-5-1.9-9.4-1.9h-11.1l-4.7,22.4h0Z"/>
    <path class="st7" d="M227.8,506.9h45.7l26.3,87.1h-40.4l-3.5-14.5h-45l-9.7,14.5h-36l62.5-87.1h0ZM251.4,560.4l-7.1-30.4-20.5,30.4h27.6Z"/>
    <path class="st15" d="M327,506.9h62c5.2,0,10,.3,14.2.8s7.8,1.4,10.7,2.8c2.9,1.3,5.2,3.1,6.8,5.4,1.6,2.3,2.4,5.2,2.4,8.7s-.2,4-.7,6.3c-.6,2.9-1.7,5.5-3.1,7.8s-3.1,4.3-5.1,6.1c-2,1.8-4.3,3.2-6.8,4.3-2.5,1.1-5.2,1.9-8,2.4l-.2,1.2c2,0,3.9.3,5.7.7,1.8.4,3.3,1,4.6,1.9,1.3.9,2.3,2,3,3.4s1.1,3.2,1.1,5.2v.7l-1.3,29.2h-36.7l1-19.4v-3.1c0-1.9-.2-3.5-.5-4.7-.4-1.2-1-2.1-2-2.8-1-.6-2.3-1.1-4-1.3-1.7-.2-4-.3-6.8-.3h-11.1l-6.5,31.6h-36.7l18.1-87.1v.2ZM355.6,545.5h14c3.9,0,7.4-.7,10.3-2.2s4.8-4.3,5.7-8.4c.2-1,.4-1.9.4-2.8,0-2.8-1.1-4.8-3.4-5.9s-5.4-1.7-9.2-1.7h-13.4l-4.3,21h-.1Z"/>
    <path class="st16" d="M446.2,506.9h36.7l-18.1,87.1h-36.7l18.1-87.1h0ZM474.7,548.6l40.1-41.7h45.2l-43.3,39.3,29.1,47.8h-46.1l-25-45.4h0Z"/>
    <path class="st12" d="M574.3,506.9h62.1c4.5,0,8.6.4,12.4,1.1,3.7.8,6.9,2,9.6,3.7s4.7,3.9,6.2,6.6c1.4,2.7,2.2,6.1,2.2,10.1s0,2.8-.2,4.2c0,1.4-.4,2.9-.8,4.5-1.1,5.3-2.9,9.8-5.3,13.5-2.4,3.7-5.3,6.6-8.7,8.9s-7.1,3.9-11.3,4.9c-4.1,1-8.5,1.5-13.1,1.5h-28.7l-5.8,28h-36.7l18.1-87.1h0ZM602.4,547.7h7.5c6.5,0,11.3-.8,14.3-2.5s5-4.7,5.8-8.9c.2-1.2.4-2.3.4-3.3,0-2.6-.9-4.5-2.8-5.8-1.9-1.3-5-1.9-9.4-1.9h-11.1l-4.7,22.4h0Z"/>
    <path class="st13" d="M687.6,506.9h36.7l-13.8,65.9h40.2l-4.3,21.2h-76.9l18.1-87.1Z"/>
    <path class="st10" d="M809.1,506.9h45.7l26.3,87.1h-40.4l-3.5-14.5h-45l-9.7,14.5h-36l62.5-87.1h.1ZM832.7,560.4l-7.1-30.4-20.5,30.4h27.6Z"/>
    <path class="st11" d="M915.1,528.1h-28.6l4.5-21.2h93.9l-4.5,21.2h-28.6l-13.6,65.9h-36.7l13.6-65.9h0Z"/>
    <path class="st14" d="M980,570.5l54.3-42.3h-42.7l4.5-21.2h90.5l-4.5,21.2-57.2,44.6h49.7l-4.3,21.2h-95.1l4.8-23.5h0Z"/>
  </g>
</svg>